<svg xmlns="http://www.w3.org/2000/svg" width="400" height="400"><path d="M167.527 24.461c-6.747 2.216-6.52 1.129-8.797 42.083-3.739 67.264-3.162 81.314 3.753 91.359 4.118 5.982 13.661 3.457 18.521-4.901 2.395-4.12 14.115-29.182 17.022-36.401.382-.949.453-.792.95 2.109 2.216 12.933 9.745 20.027 21.307 20.077 10.183.045 18.612-11.657 28.803-39.985a469.41 469.41 0 0 1 1.472-4.055c.117-.305.851 1.852 1.632 4.792.78 2.94 2.922 9.825 4.76 15.3l3.341 9.954-.837.674c-12.587 10.14-17.141 16.819-17.512 25.685-.494 11.775 4.618 18.815 13.648 18.796 20.218-.043 31.952-21.568 25.09-46.025l-.969-3.451 2.285-2.034c4.637-4.131 11.703-12.547 14.934-17.787l1.545-2.506.66 2.563c.363 1.409 2.275 7.405 4.249 13.323l3.588 10.762-2.74 2.212c-13.138 10.601-17.613 19.545-15.365 30.706 4.193 20.82 33.108 13.7 39.364-9.693 1.939-7.253 1.501-16.582-1.185-25.212l-.694-2.231 3.867-3.79c9.038-8.856 15.224-17.773 19.431-28.008 1.906-4.637 1.556-6.21-1.509-6.785-2.477-.465-2.89-.106-5.024 4.372-3.819 8.016-8.545 14.724-15.292 21.708-2.126 2.201-3.991 4.002-4.144 4.002-.689 0-7.269-19.82-9.241-27.834-2.878-11.693-1.38-15.446 8.155-20.432 3.728-1.95 4.41-2.597 4.41-4.187 0-5.335-18.86-.104-25.778 7.149-3.746 3.927-5.188 8.31-5.195 15.796l-.006 4.992-1.458 2.676c-4.893 8.974-16.909 23.337-17.913 21.409-2.176-4.182-9.028-26.917-9.901-32.855-1.04-7.072 1.342-10.838 9.375-14.82 7.862-3.898 4.314-7.988-4.977-5.737-13.087 3.172-19.996 10.165-22.738 23.017-1.625 7.612-5.819 18.85-11.023 29.535-12.26 25.169-24.194 24.516-23.091-1.264.262-6.111.209-5.97 2.553-6.803 12.827-4.556 20.462-25.763 11.489-31.912-3.022-2.07-8.866-3.185-11.736-2.238-3.986 1.316-11.565 10.853-14.36 18.07l-2.28 5.899c-2.315 5.992-6.305 14.886-11.496 25.622-2.745 5.677-6.62 13.874-8.61 18.215-6.622 14.443-7.151 14.418-7.124-.335.009-5.171.226-12.304.482-15.853 2.328-32.291 5.032-65.548 6.476-79.639 1.139-11.114.735-13.824-2.329-15.613-1.584-.925-7.582-1.213-9.838-.471m-78.718.41c-7.705 1.585-8.269 2.897-9.344 21.765-2.518 44.177-2.126 76.06.966 78.611.481.397.417.733-.511 2.667-4.837 10.078-1.507 23.389 6.782 27.109 22.388 10.047 60.497-31.34 55.454-60.223-1.824-10.444-7.288-15.308-17.815-15.856l-4.507-.234 2.989-2.397c6.061-4.858 11.754-11.794 14.311-17.432 8.564-18.889-5.325-38.99-21.402-30.973-5.202 2.593-8.616 6.25-13.52 14.48-2.683 4.503-2.564 4.882-1.712-5.412.955-11.562.584-12.417-5.444-12.533-2.097-.04-4.908.152-6.247.428m33.395 11.77c5.901 5.901-7.79 31.94-22.985 43.717l-1.611 1.248.255-2.738c1.108-11.916 3.385-19.719 8.169-27.992 6.932-11.989 13.041-17.366 16.172-14.235m104.935 41.792c1.472 3.805-3.263 14.121-7.863 17.131-3.66 2.394-3.612 2.448-2.332-2.604 2.143-8.454 4.69-13.366 7.756-14.961 1.55-.806 1.989-.728 2.439.434m-101.274 8.528c6.882 3.388 5.435 12.962-4.13 27.325-11.988 18.001-30.655 31.565-35.873 26.066-5.705-6.013 14.747-28.947 29.845-33.467 2.417-.724 2.532-2.124.355-4.35-2.247-2.299-6.978-.907-16.365 4.816l-3.291 2.006.33-7.628.331-7.628 3.356-2.035c10.913-6.616 19.055-8.25 25.442-5.105m137.815 54.421c.096 12.936-11.009 25.021-13.725 14.936-1.316-4.889 1.624-10.652 9.181-17.992l3.905-3.794.306 1.582c.168.87.318 3.241.333 5.268m46.628-1.612c.38 7.754-2.791 15.993-7.246 18.823-6.481 4.119-9.154-4.722-3.877-12.825 1.949-2.992 10.012-11.097 10.527-10.581.215.214.483 2.277.596 4.583m-67.629 37.344c-13.814 5.132-20.645 22.654-12.078 30.979 2.194 2.133 4.696 2.927 11.695 3.714 8.875.998 9.739 1.451 9.381 4.919-.84 8.138-11.71 17.162-17.673 14.67-4.475-1.869 2.328-9.195 10.701-11.523 2.526-.702 2.979-1.475 1.48-2.525-3.802-2.663-15.371 4.067-17.077 9.935-2.626 9.032 10.178 12.865 19.87 5.949 11.217-8.004 13.306-22.459 3.764-26.039-.595-.224-3.205-.727-5.8-1.119-10.17-1.537-12.05-4.938-7.918-14.325 6.268-14.243 11.007-15.046 10.468-1.775-.222 5.48-.001 6.524 1.38 6.524 1.803 0 3.506-4.728 3.506-9.732 0-8.783-4.36-12.379-11.699-9.652m-32.9 4.914c-2.436 1.226-2.474 1.648-1.53 17.379.458 7.626 1.06 18.427 1.338 24.003.548 10.968.944 13.2 2.69 15.153 1.809 2.025 6.416 1.798 6.96-.343.533-2.098-.87-54.065-1.493-55.269-.913-1.766-5.284-2.272-7.965-.923m-65.632 1.07c-.304.1-.884.319-1.29.487-.405.168-3.635.497-7.177.731-9.951.659-12.915 1.984-12.915 5.769 0 2.246.698 2.275 15.76.668 1.065-.114 1.936-.147 1.936-.074s-1.085 8.753-2.412 19.289c-3.297 26.192-3.336 27.296-1.065 29.995 1.618 1.923 5.423 1.911 6.457-.021.244-.456 2.129-11.787 4.188-25.179l3.745-24.348 1.588-.116c2.293-.166 7.455.517 11.192 1.481 3.65.942 4.436.763 4.62-1.053.313-3.099-4.682-5.418-14.12-6.555-2.433-.293-5.17-.702-6.083-.908-1.766-.399-3.518-.465-4.424-.166m46.915.097c-3.335.852-3.412 1.249-3.412 17.451v13.757l-4.701.593c-2.585.325-4.774.522-4.865.436-.221-.208.611-16.05 1.264-24.062.617-7.562.563-7.778-1.942-7.77-4.168.013-4.383 1.108-5.466 27.829-.179 4.437-.375 6.055-.789 6.53-.377.433-.466.957-.283 1.659.148.565.404 4.561.569 8.88.332 8.682.471 9.196 2.765 10.29 3.062 1.46 3.487-.06 3.492-12.481l.002-6.135 4.332-.615c2.382-.339 4.622-.673 4.977-.743.598-.118.645.451.645 7.871 0 12.323 1.087 15.07 5.909 14.92 3.892-.121 3.518 2.09 4.419-26.121.958-29.998.958-30.111-.11-31.352-.93-1.082-4.381-1.557-6.806-.937m-77.698 59.358c-4.279 1.173-5.906 2.988-10.595 11.825-3.92 7.387-8.751 18.975-14.14 33.917l-2.327 6.452-.017-2.688c-.025-3.791.655-14.438 1.311-20.538 1.557-14.491 1.086-15.401-7.965-15.394-9.298.008-11.424 2.088-12.158 11.891-4.027 53.81-3.672 61.811 3.057 68.84 6.814 7.119 10.728 5.146 14.062-7.088 2.415-8.859 6.499-22.037 9.309-30.04 3.578-10.186 10.436-27.774 10.719-27.491.069.069-.049 2.093-.262 4.496-2.312 26.07-.717 40.5 5.408 48.903 3.246 4.454 7.614 4.844 10.506.937.5-.676 2.538-4.962 4.527-9.524 5.77-13.235 9.29-20.912 11.492-25.069 2.648-4.997 6.392-11.429 6.653-11.429.208 0 .088 1.901-.838 13.313-1.716 21.163-1.352 34.733 1.134 42.19 4.415 13.243 13.967 15.269 20.532 4.356 1.533-2.548 11.208-23.404 15.237-32.846 1.606-3.762 2.005-4.146 2.005-1.928 0 14.228 10.532 25.199 23.624 24.607 10.214-.463 19.599-14.178 30.034-43.895l1.006-2.866 1.26 4.894c.693 2.692 2.93 9.928 4.969 16.08l3.709 11.186-1.425 1.164c-13.528 11.055-17.809 17.785-17.825 28.024-.02 12.423 6.203 18.988 16.971 17.903 20.431-2.058 30.629-24.09 23.143-49.997l-.447-1.547 4.219-4.175c5.368-5.313 9.674-10.457 13.013-15.545l2.633-4.013.47 1.801c.259.99 2.272 7.316 4.473 14.056l4.001 12.256-3.181 2.666c-11.959 10.021-15.98 16.562-16.045 26.095-.096 14.009 7.278 20.61 20.018 17.919 17.635-3.724 26.67-23.791 20.891-46.406l-1.203-4.707 4.859-4.878c9.333-9.369 14.571-17.063 19.594-28.781 1.903-4.44 1.421-6.098-1.96-6.732-2.257-.424-2.831.154-5.425 5.457-3.933 8.042-9.002 15.112-16.323 22.766l-3.687 3.854-1.197-3.117c-2.357-6.135-6.623-19.445-8.147-25.421-3.358-13.173-1.86-17.354 8.017-22.37 9.549-4.85 4.243-9.048-6.906-5.464-14.957 4.807-20.738 11.738-20.714 24.833l.008 4.556-1.48 2.817c-3.275 6.231-7.257 11.704-13.671 18.79-5.31 5.866-5.165 5.798-6.17 2.916-13.266-38.037-13.214-41.756.689-48.736 5.902-2.963 5.09-6.784-1.351-6.365-14.706.957-25.298 10.335-28.296 25.052-2.808 13.79-13.951 38.13-20.761 45.349-7.374 7.816-12.454 5.972-14.462-5.249-.501-2.803-.621-11.285-.208-14.779l.287-2.428 1.979-.624c11.905-3.753 20.783-23.928 14.011-31.841-2.253-2.631-8.559-4.867-12.319-4.367-5.394.718-13.724 10.754-17.466 21.043-.516 1.42-3.125 7.226-5.797 12.904-6.282 13.345-9.548 20.533-14.062 30.951-2.017 4.655-4.28 9.632-5.029 11.06l-1.363 2.597-.125-2.212c-.431-7.579 1.867-30.573 5.268-52.719 2.283-14.865 1.692-17.066-4.829-17.981-10.946-1.536-18.052 5.423-30.764 30.127l-3.594 6.985.157-2.192c.087-1.206.326-7.584.532-14.174.351-11.23.768-17.653 1.867-28.756.672-6.792.007-9.496-2.689-10.934-1.353-.722-8.413-1.075-10.431-.522m97.54 24.413c1.86 3.474-3.3 14.855-8.201 18.091-4.034 2.663-4.106 2.343-1.418-6.347 2.773-8.966 7.813-15.119 9.619-11.744m87.481 65.569c.063 11.709-8.216 23.625-13.054 18.787-4.066-4.067-.84-12.576 8.074-21.296 5.084-4.974 4.938-5.048 4.98 2.509m-49.407-4.332c1.3 10.827-3.029 21.919-9.263 23.731-2.594.754-3.621.126-4.644-2.84-1.803-5.229 1.142-11.357 9.175-19.094 4.511-4.345 4.429-4.314 4.732-1.797" fill-rule="evenodd"/></svg>